# xmcd
#
# Track frame offsets:
#	150
#	10785
#	24143
#	43348
#	56800
#	68228
#	82605
#	93585
#	105463
#	116533
#	128733
#	142023
#	155335
#	169338
#	182205
#	198908
#	214150
#	229728
#
# Disc length: 3305 seconds
#
# Revision: 13
# Processed by: cddbd v1.5.2PL0 Copyright (c) Steve Scherf et al.
# Submitted via: audiograbber 1.83.01
#
DISCID=f00ce712
DTITLE=Various Artist - Ultimate Country Party
DYEAR=1998
DGENRE=Oldies
TTITLE0=Alan Jackson - Chattahoochee
TTITLE1=Vince Gill - One More Last Chance
TTITLE2=Shania Twain - Whose Bed Have Your Boots Been Under
TTITLE3=Tracy Byrd - Watermelon Crawl
TTITLE4=Mark Chesnutt - Going Through The Big D
TTITLE5=Brooks and Dunn - Boot Scootin' Boogie
TTITLE6=George Strait - She Lays It All On The Line
TTITLE7=Lorrie Morgan - What Part Of No
TTITLE8=BR5-49 - Cherokee Boogie
TTITLE9=Lonestar - No News
TTITLE10=Clint Black - A Better Man
TTITLE11=Ricochet - Daddy's Money
TTITLE12=Pam Tillis - Cleopatra, Queen Of Denial
TTITLE13=Trace Adkins - (This Ain't) No Thinkin' Thing
TTITLE14=The Tractors - Baby Likes To Rock It
TTITLE15=Lee Roy Parnell - If The House Is Rockin'
TTITLE16=Patty Loveless - Blame It On Your Heart
TTITLE17=Diamond Rio - How Your Love Makes Me Feel
EXTD=
EXTT0=
EXTT1=
EXTT2=
EXTT3=
EXTT4=
EXTT5=
EXTT6=
EXTT7=
EXTT8=
EXTT9=
EXTT10=
EXTT11=
EXTT12=
EXTT13=
EXTT14=
EXTT15=
EXTT16=
EXTT17=
PLAYORDER=
